<svg xmlns="http://www.w3.org/2000/svg" width="17.164" height="19.616" viewBox="0 0 17.164 19.616">
  <path id="Icon_awesome-calendar-plus" data-name="Icon awesome-calendar-plus" d="M16.7,6.13H.46A.461.461,0,0,1,0,5.67V4.291A1.839,1.839,0,0,1,1.839,2.452H3.678V.46A.461.461,0,0,1,4.138,0H5.67a.461.461,0,0,1,.46.46V2.452h4.9V.46a.461.461,0,0,1,.46-.46h1.532a.461.461,0,0,1,.46.46V2.452h1.839a1.839,1.839,0,0,1,1.839,1.839V5.67A.461.461,0,0,1,16.7,6.13ZM.46,7.356H16.7a.461.461,0,0,1,.46.46v9.961a1.839,1.839,0,0,1-1.839,1.839H1.839A1.839,1.839,0,0,1,0,17.777V7.816A.461.461,0,0,1,.46,7.356ZM12.566,12.72a.461.461,0,0,0-.46-.46h-2.3v-2.3a.461.461,0,0,0-.46-.46H7.816a.461.461,0,0,0-.46.46v2.3h-2.3a.461.461,0,0,0-.46.46v1.532a.461.461,0,0,0,.46.46h2.3v2.3a.461.461,0,0,0,.46.46H9.348a.461.461,0,0,0,.46-.46v-2.3h2.3a.461.461,0,0,0,.46-.46Z" fill="#07417a"/>
</svg>
