<svg xmlns="http://www.w3.org/2000/svg" width="29.25" height="27" viewBox="0 0 29.25 27">
  <g id="Group_16" data-name="Group 16" transform="translate(-890 -355)">
    <g id="Icon_ionic-ios-calendar" data-name="Icon ionic-ios-calendar" transform="translate(886.625 350.5)">
      <path id="Path_1" data-name="Path 1" d="M29.813,6.75H27V8.438A.564.564,0,0,1,26.438,9H25.313a.564.564,0,0,1-.562-.562V6.75H11.25V8.438A.564.564,0,0,1,10.688,9H9.563A.564.564,0,0,1,9,8.438V6.75H6.188A2.821,2.821,0,0,0,3.375,9.563V28.688A2.821,2.821,0,0,0,6.188,31.5H29.813a2.821,2.821,0,0,0,2.813-2.812V9.563A2.821,2.821,0,0,0,29.813,6.75Zm.563,21.094a1.41,1.41,0,0,1-1.406,1.406H7.031a1.41,1.41,0,0,1-1.406-1.406V15.188a.564.564,0,0,1,.563-.562H29.813a.564.564,0,0,1,.563.563Z" fill="#3b8bc0"/>
      <path id="Path_2" data-name="Path 2" d="M11.25,5.063a.564.564,0,0,0-.562-.562H9.563A.564.564,0,0,0,9,5.063V6.75h2.25Z" fill="#3b8bc0"/>
      <path id="Path_3" data-name="Path 3" d="M27,5.063a.564.564,0,0,0-.562-.562H25.313a.564.564,0,0,0-.562.563V6.75H27Z" fill="#3b8bc0"/>
    </g>
    <path id="Path_4" data-name="Path 4" d="M5.892,0H.532V-1.063l2.53-2.7a6.241,6.241,0,0,0,.771-.994,1.6,1.6,0,0,0,.25-.806,1.2,1.2,0,0,0-.263-.819.95.95,0,0,0-.752-.3,1.025,1.025,0,0,0-.83.363,1.436,1.436,0,0,0-.3.953H.376A2.564,2.564,0,0,1,.717-6.666a2.4,2.4,0,0,1,.964-.927,2.93,2.93,0,0,1,1.413-.336,2.775,2.775,0,0,1,1.877.58A2.052,2.052,0,0,1,5.64-5.709a2.629,2.629,0,0,1-.3,1.182,6.567,6.567,0,0,1-1.031,1.4L2.53-1.251H5.892Zm2.53-4.6h.827a1.166,1.166,0,0,0,.875-.3,1.082,1.082,0,0,0,.285-.784.957.957,0,0,0-.282-.736,1.093,1.093,0,0,0-.776-.263,1.145,1.145,0,0,0-.747.244.781.781,0,0,0-.3.636H6.751a1.909,1.909,0,0,1,.33-1.1,2.2,2.2,0,0,1,.924-.76,3.083,3.083,0,0,1,1.308-.274,2.924,2.924,0,0,1,1.944.594,2.025,2.025,0,0,1,.7,1.635,1.646,1.646,0,0,1-.328.988,2.129,2.129,0,0,1-.859.693,1.943,1.943,0,0,1,.986.709,1.923,1.923,0,0,1,.325,1.117,2.059,2.059,0,0,1-.76,1.67A3.056,3.056,0,0,1,9.313.107,2.9,2.9,0,0,1,7.4-.51a2.017,2.017,0,0,1-.744-1.633H8.207a.9.9,0,0,0,.33.72,1.217,1.217,0,0,0,.814.279,1.223,1.223,0,0,0,.867-.293,1.01,1.01,0,0,0,.314-.776q0-1.171-1.289-1.171H8.422Z" transform="translate(899 376)" fill="#3b8bc0"/>
  </g>
</svg>
