<svg xmlns="http://www.w3.org/2000/svg" width="20.849" height="18.242" viewBox="0 0 20.849 18.242">
  <path id="Icon_metro-equalizer" data-name="Icon metro-equalizer" d="M11.692,5.159V4.833a.98.98,0,0,0-.977-.977H7.457a.98.98,0,0,0-.977.977v.326H2.571V7.765H6.48v.326a.98.98,0,0,0,.977.977h3.258a.98.98,0,0,0,.977-.977V7.765H23.419V5.159H11.692ZM7.783,7.765V5.159h2.606V7.765ZM19.51,11.349a.98.98,0,0,0-.977-.977H15.275a.98.98,0,0,0-.977.977v.326H2.571V14.28H14.3v.326a.98.98,0,0,0,.977.977h3.258a.98.98,0,0,0,.977-.977V14.28h3.909V11.674H19.51v-.326ZM15.6,14.28V11.674h2.606V14.28Zm-3.909,3.583a.98.98,0,0,0-.977-.977H7.457a.98.98,0,0,0-.977.977v.326H2.571V20.8H6.48v.326a.98.98,0,0,0,.977.977h3.258a.98.98,0,0,0,.977-.977V20.8H23.419V18.189H11.692v-.326ZM7.783,20.8V18.189h2.606V20.8H7.783Z" transform="translate(-2.571 -3.856)" fill="#fff"/>
</svg>
