<svg xmlns="http://www.w3.org/2000/svg" width="32.25" height="25.8" viewBox="0 0 32.25 25.8">
  <path id="Icon_awesome-user-plus" data-name="Icon awesome-user-plus" d="M31.444,10.481H28.219V7.256a.809.809,0,0,0-.806-.806H25.8a.809.809,0,0,0-.806.806v3.225H21.769a.809.809,0,0,0-.806.806V12.9a.809.809,0,0,0,.806.806h3.225v3.225a.809.809,0,0,0,.806.806h1.612a.809.809,0,0,0,.806-.806V13.706h3.225a.809.809,0,0,0,.806-.806V11.287A.809.809,0,0,0,31.444,10.481ZM11.287,12.9a6.45,6.45,0,1,0-6.45-6.45A6.45,6.45,0,0,0,11.287,12.9ZM15.8,14.512h-.842a8.772,8.772,0,0,1-7.347,0H6.772A6.774,6.774,0,0,0,0,21.285v2.1A2.419,2.419,0,0,0,2.419,25.8H20.156a2.419,2.419,0,0,0,2.419-2.419v-2.1A6.774,6.774,0,0,0,15.8,14.512Z" fill="#fff"/>
</svg>
