<svg xmlns="http://www.w3.org/2000/svg" width="17.332" height="19.808" viewBox="0 0 17.332 19.808">
  <path id="Icon_awesome-user-md" data-name="Icon awesome-user-md" d="M8.666,9.9A4.952,4.952,0,1,0,3.714,4.952,4.952,4.952,0,0,0,8.666,9.9ZM4.023,16.4a.928.928,0,1,0,.928-.928A.926.926,0,0,0,4.023,16.4Zm8.356-5.238v1.9a3.1,3.1,0,0,1,2.476,3.033v1.613a.621.621,0,0,1-.5.607l-1.246.248a.308.308,0,0,1-.364-.244l-.12-.607a.306.306,0,0,1,.244-.364l.747-.151v-1.1a1.858,1.858,0,1,0-3.714.074V17.2l.747.151a.314.314,0,0,1,.244.364l-.12.607a.314.314,0,0,1-.364.244L9.2,18.4a.618.618,0,0,1-.534-.615V16.094a3.1,3.1,0,0,1,2.476-3.033V11.312c-.085.027-.17.043-.255.074a6.693,6.693,0,0,1-4.441,0,4.276,4.276,0,0,0-.874-.2v3.157a2.167,2.167,0,1,1-1.238,0v-3.11A5.186,5.186,0,0,0,0,16.342v1.733a1.735,1.735,0,0,0,1.733,1.733H15.6a1.735,1.735,0,0,0,1.733-1.733V16.342A5.192,5.192,0,0,0,12.38,11.165Z" fill="#07417a"/>
</svg>
