<svg xmlns="http://www.w3.org/2000/svg" width="18.078" height="16.066" viewBox="0 0 18.078 16.066">
  <path id="Icon_awesome-edit" data-name="Icon awesome-edit" d="M12.636,2.615l2.831,2.831a.307.307,0,0,1,0,.433L8.612,12.734,5.7,13.057a.61.61,0,0,1-.675-.675L5.348,9.47,12.2,2.615A.307.307,0,0,1,12.636,2.615ZM17.72,1.9,16.188.365a1.227,1.227,0,0,0-1.732,0L13.345,1.476a.307.307,0,0,0,0,.433L16.176,4.74a.307.307,0,0,0,.433,0L17.72,3.629a1.227,1.227,0,0,0,0-1.732Zm-5.668,8.973v3.2H2.009V4.021H9.221a.386.386,0,0,0,.267-.11l1.255-1.255a.377.377,0,0,0-.267-.643H1.506A1.507,1.507,0,0,0,0,3.519V14.567a1.507,1.507,0,0,0,1.506,1.506H12.554a1.507,1.507,0,0,0,1.506-1.506V9.614a.377.377,0,0,0-.643-.267L12.162,10.6A.386.386,0,0,0,12.052,10.869Z" transform="translate(0 -0.007)" fill="#4f4f4f"/>
</svg>
