<svg xmlns="http://www.w3.org/2000/svg" width="15.5" height="13.775" viewBox="0 0 15.5 13.775">
  <path id="Icon_awesome-edit" data-name="Icon awesome-edit" d="M10.834,2.243,13.261,4.67a.263.263,0,0,1,0,.371L7.384,10.919l-2.5.277a.523.523,0,0,1-.579-.579l.277-2.5,5.877-5.877A.263.263,0,0,1,10.834,2.243Zm4.359-.616L13.88.314a1.052,1.052,0,0,0-1.485,0l-.953.953a.263.263,0,0,0,0,.371l2.427,2.427a.263.263,0,0,0,.371,0l.953-.953a1.052,1.052,0,0,0,0-1.485ZM10.333,9.32V12.06H1.722V3.449H7.906a.331.331,0,0,0,.229-.094L9.211,2.278a.323.323,0,0,0-.229-.552H1.292A1.292,1.292,0,0,0,0,3.018V12.49a1.292,1.292,0,0,0,1.292,1.292h9.472a1.292,1.292,0,0,0,1.292-1.292V8.244a.324.324,0,0,0-.552-.229L10.428,9.092A.331.331,0,0,0,10.333,9.32Z" transform="translate(0 -0.007)" fill="#56a5d9"/>
</svg>
