<?xml version="1.0" standalone="no"?><!DOCTYPE svg PUBLIC "-//W3C//DTD SVG 1.1//EN" "http://www.w3.org/Graphics/SVG/1.1/DTD/svg11.dtd"><svg class="icon" height="512" viewBox="0 0 1024 1024" version="1.1" xmlns="http://www.w3.org/2000/svg"><path d="M512.006144 204.3904c287.5392 1.365333 510.976 266.513067 512 307.677867 1.024 41.096533-221.525333 307.882667-512 308.360533C221.531477 820.8384 1.371477 563.8144 0.006144 512c-1.365333-51.8144 224.4608-308.974933 512-307.677867zM92.848811 539.170133c24.302933 30.1056 57.9584 62.805333 96.4608 92.5696 97.4848 75.298133 209.578667 120.558933 322.628266 120.4224 112.2304-0.2048 224.324267-46.8992 323.310934-124.381866a633.992533 633.992533 0 0 0 97.28-93.525334 326.314667 326.314667 0 0 0 16.247466-21.435733 340.855467 340.855467 0 0 0-17.2032-22.254933 653.312 653.312 0 0 0-98.030933-93.3888c-99.259733-77.277867-210.807467-123.972267-321.877333-124.5184-111.752533-0.546133-224.324267 44.714667-322.491734 119.876266a589.687467 589.687467 0 0 0-97.143466 92.433067 264.465067 264.465067 0 0 0-19.2512 26.487467c4.846933 7.918933 11.605333 17.408 20.002133 27.716266zM512.006144 682.666667a170.666667 170.666667 0 1 1 0-341.333334 170.666667 170.666667 0 0 1 0 341.333334z m0-68.266667a102.4 102.4 0 1 0 0-204.8 102.4 102.4 0 0 0 0 204.8z" /></svg>