<svg xmlns="http://www.w3.org/2000/svg" width="70.733" height="74.663" viewBox="0 0 70.733 74.663"><defs><style>.a{fill:#104378;fill-rule:evenodd;}</style></defs><g transform="translate(-0.5 -0.5)"><g transform="translate(0.5 0.5)"><g transform="translate(0 0)"><path class="a" d="M29.767,12.5a4.98,4.98,0,0,1,3.379,1.344A13.385,13.385,0,0,0,30.592,16.4l-.043.059-.034.059c-.154.26-.316.512-.477.768q-.215.344-.433.685a9.228,9.228,0,0,0-3.579-.282A9.4,9.4,0,0,0,24.5,18a5.519,5.519,0,0,1,5.267-5.5" transform="translate(-5.638 -3.069)"/><path class="a" d="M31.695,2.516l.146.051a.4.4,0,0,1,.217.473l-.781,3.118a.318.318,0,0,1-.4.257l-.146-.051a.4.4,0,0,1-.218-.473l.782-3.118a.318.318,0,0,1,.4-.257" transform="translate(-6.922 -0.928)"/><path class="a" d="M40.672,1.616l.257.179a.687.687,0,0,1,.174.935L37.955,7.493a.647.647,0,0,1-.911.179l-.257-.179a.687.687,0,0,1-.174-.935L39.76,1.795a.647.647,0,0,1,.911-.179" transform="translate(-8.207 -0.714)"/><path class="a" d="M24.032,8.707a8.8,8.8,0,0,1,12.2,3.477A9.438,9.438,0,0,1,36.79,13.4a7.558,7.558,0,0,0-2.022,1.209,7,7,0,0,0-.536-1.25,6.536,6.536,0,0,0-9.065-2.584,6.994,6.994,0,0,0-2.535,9.3,5.766,5.766,0,0,0-2.59-.159A9.394,9.394,0,0,1,24.032,8.707" transform="translate(-4.567 -1.999)"/><path class="a" d="M12.193,13.507l4.695,1.917.047.038a.367.367,0,0,1,.067.192.176.176,0,0,1-.034.1h0a.218.218,0,0,1-.089.068h0a.465.465,0,0,1-.184.031l-.032,0-4.984-1.362-.043-.012-.019-.033a.9.9,0,0,1-.093-.217h0a.512.512,0,0,1,.038-.393.639.639,0,0,1,.332-.27,1.208,1.208,0,0,1,.231-.066l.07.007" transform="translate(-2.855 -3.283)"/><path class="a" d="M23.679,2.747,24.858,7.69l0,.064a.5.5,0,0,1-.125.193h0A.222.222,0,0,1,24.617,8a.209.209,0,0,1-.114-.016.377.377,0,0,1-.139-.115l-.015-.027L22.516,3.1l-.016-.04.017-.04a1.2,1.2,0,0,1,.132-.233.683.683,0,0,1,.362-.265.621.621,0,0,1,.434.046,1,1,0,0,1,.2.124l.036.057" transform="translate(-5.21 -0.928)"/><path class="a" d="M22.027.637l.345-.1a.791.791,0,0,1,.968.439l2.051,5.593a.678.678,0,0,1-.488.87l-.345.1a.791.791,0,0,1-.968-.439L21.538,1.507a.678.678,0,0,1,.488-.87" transform="translate(-4.996 -0.5)"/><path class="a" d="M10.547,13.264l.12-.313a.7.7,0,0,1,.9-.4l5.558,2.2a.714.714,0,0,1,.4.918l-.12.313a.7.7,0,0,1-.9.4l-5.558-2.2a.714.714,0,0,1-.4-.918" transform="translate(-2.641 -3.069)"/><path class="a" d="M16.564,8.793l.1-.136a.474.474,0,0,1,.572-.105l3,1.546a.305.305,0,0,1,.129.467l-.1.136a.474.474,0,0,1-.572.105l-3-1.546a.3.3,0,0,1-.129-.467" transform="translate(-3.925 -2.213)"/><path class="a" d="M7.969,76.5a7.527,7.527,0,0,1,4.406,1.457,1.539,1.539,0,0,1,.219.647v.078q0,.909-1.072,1.018h-.13L10.024,79a7.194,7.194,0,0,0-2.056-.4,5.519,5.519,0,0,0-4.419,2.325,5.922,5.922,0,0,0-.932,3.037A5.347,5.347,0,0,0,7.9,89.329h.11a6.249,6.249,0,0,0,3.282-1.059h.353c.634.14.952.466.952.981v.109q0,1.016-2.761,1.835a6.27,6.27,0,0,1-1.744.238H7.9a7.454,7.454,0,0,1-6.211-3.415A7.806,7.806,0,0,1,.5,83.966a7.377,7.377,0,0,1,3.553-6.319A7.493,7.493,0,0,1,7.969,76.5Zm7.181.1h.182q.951.2.953.9V89.369h.493c.486,0,.8.327.942.988v.078c-.113.664-.456,1-1.024,1H15.232c-.555,0-.9-.34-1.024-1.018V77.7C14.287,76.966,14.6,76.6,15.15,76.6Zm8.555,4.065A5.432,5.432,0,0,1,27.5,82.244a5.373,5.373,0,0,1,1.614,3.806A5.315,5.315,0,0,1,26.244,90.8a5.408,5.408,0,0,1-2.429.63h-.3a5.485,5.485,0,0,1-4.06-2.036A5.689,5.689,0,0,1,18.3,86.05a5.332,5.332,0,0,1,2.326-4.4A5.5,5.5,0,0,1,23.705,80.667ZM20.4,85.941v.18a3.2,3.2,0,0,0,1.816,2.9,2.964,2.964,0,0,0,1.384.33h.219a3.228,3.228,0,0,0,2.97-2.009,3.48,3.48,0,0,0,.23-1.219v-.18a3.182,3.182,0,0,0-1.436-2.622,3.321,3.321,0,0,0-1.915-.569,3.267,3.267,0,0,0-3.107,2.22A3.336,3.336,0,0,0,20.4,85.941ZM38.7,90.33a4.974,4.974,0,0,1-3.125,1.1h-.261a5.328,5.328,0,0,1-4.324-2.414,5.777,5.777,0,0,1-.843-3.194v-4.1c.082-.759.446-1.137,1.1-1.137.651.167.976.48.976.937v4q0,2.39,1.336,3.19a3.066,3.066,0,0,0,1.908.657,3.252,3.252,0,0,0,3.022-2.053,4.463,4.463,0,0,0,.209-1.348V81.6q.2-1.016,1.089-1.018.987.22.987,1.008v8.9q0,.751-.987.939h-.1q-.986-.178-.986-1.011ZM51.2,76.541h.182c.634.133.952.436.952.909v7.466l.041,1.277a5.5,5.5,0,0,1-5.382,5.239h-.3a5.589,5.589,0,0,1-4.138-2.066,5.78,5.78,0,0,1-1.175-3.4,5.433,5.433,0,0,1,2.371-4.46,5.605,5.605,0,0,1,3.135-1A4.957,4.957,0,0,1,50.3,81.678V78.1l-.041-.647C50.449,76.844,50.761,76.541,51.2,76.541Zm-7.747,9.312v.19A3.353,3.353,0,0,0,45.69,89.2a3.882,3.882,0,0,0,1.065.17h.233a3.371,3.371,0,0,0,3.135-2.216,4.555,4.555,0,0,0,.171-1.031v-.228a3.367,3.367,0,0,0-2.271-3.156,4.953,4.953,0,0,0-1.076-.17H46.8a3.37,3.37,0,0,0-3.347,3.286Z" transform="translate(-0.5 -16.77)"/><path class="a" d="M75.483,80.916v.34a2.418,2.418,0,0,0,1.39,2.121A2.33,2.33,0,0,0,79.918,82.2a2.451,2.451,0,0,0,.244-1.1v-.041a2.4,2.4,0,0,0-1.685-2.373,1.656,1.656,0,0,0-.6-.088h-.218a2.288,2.288,0,0,0-2.06,1.6A3.146,3.146,0,0,0,75.483,80.916Zm2.067,4.736A4.357,4.357,0,0,1,74,83.187a5.061,5.061,0,0,1-.5-2.125,4.578,4.578,0,0,1,2.336-4.035,4.338,4.338,0,0,1,2.006-.528,4.267,4.267,0,0,1,3.7,2.288,5.165,5.165,0,0,1,.6,2.278,5.3,5.3,0,0,1-1.3,3.336l-4.736,6.762a1.18,1.18,0,0,1-.687.269,1.023,1.023,0,0,1-.96-1.048A5.182,5.182,0,0,1,75.65,88.4l1.9-2.751Z" transform="translate(-16.127 -16.77)"/><path class="a" d="M40.957,46.793c2.15-3.217,3.962-6.706,5.764-9.913a9.6,9.6,0,0,1-1.79.168,9.275,9.275,0,1,1,9.43-9.274,9.113,9.113,0,0,1-.949,4.059l.046.013L44.887,46.793Zm9.115-15.947-.017-.006-.115.208a6.038,6.038,0,0,1-5.009,2.64,5.916,5.916,0,1,1,6.015-5.915,5.817,5.817,0,0,1-.874,3.073Z" transform="translate(-7.993 -4.353)"/><path class="a" d="M4.756,40.557a10.979,10.979,0,0,1,4.162-11.28,7.273,7.273,0,0,1,2.872-1.311s-.5-3.526,1.2-5.655a10.16,10.16,0,0,1,6.681-3.643,7.716,7.716,0,0,1,4.909,1.212C31.624,7.692,48.834,9.134,51.817,22.025c.055.138.088.416.135.552a18.659,18.659,0,0,1,.456,4.116c7.261.7,12.376,7.094,10.725,14.156-1.172,5.013-3.986,6.762-7.5,7.695s-21.1.116-21.1.116a23.131,23.131,0,0,1-12.25,8.453,19.762,19.762,0,0,1-3.575.758s1.583-3.264,1.583-5.188C20.288,42.356,7.685,55.258,4.756,40.557ZM49.031,26.163c.157-14.012-18.613-16.49-22.855-2.362,0,0-1.579-.935-1.87-1.124a5.939,5.939,0,0,0-1.673-.831c-.7-.117-3.985-.758-6.506,1.457s-.586,6.7-.586,6.7a10,10,0,0,0-3.751,1.049,8.7,8.7,0,0,0-4.161,8.336c1.049,10.823,12.592,2.717,15.24,9.035.879,2.1,0,5.946,0,5.946,4.432-1.531,7.6-4.738,10.2-8.463H36.6v0h2.365c5.1.123,15.059.375,16.782-.224C63.6,42.955,61.7,29.033,48.637,29.612a11.21,11.21,0,0,0,.394-3.449Z" transform="translate(-1.356 -2.855)"/><path class="a" d="M87.465,73.5A1.965,1.965,0,1,1,85.5,75.465,1.965,1.965,0,0,1,87.465,73.5Zm0,.316a1.649,1.649,0,1,1-1.649,1.649,1.649,1.649,0,0,1,1.649-1.649Z" transform="translate(-18.696 -16.127)"/><path class="a" d="M86.66,74.5H87.2a.7.7,0,0,1,.6.36.6.6,0,0,1,.077.292v.024a.637.637,0,0,1-.352.553l-.017.008q.564.9.564.937v.03c0,.085-.057.137-.17.155h-.011q-.124,0-.238-.229l-.512-.81h-.286V76.7c0,.085-.057.136-.171.154h-.01q-.143,0-.175-.162V74.677C86.513,74.559,86.567,74.5,86.66,74.5Zm.2.323v.671h.314a.341.341,0,0,0,.35-.267l.005-.043V75.14a.325.325,0,0,0-.238-.3.837.837,0,0,0-.22-.02Z" transform="translate(-18.91 -16.341)"/></g></g></g></svg>