<svg xmlns="http://www.w3.org/2000/svg" width="18.922" height="21.625" viewBox="0 0 18.922 21.625">
  <path id="Icon_awesome-user-injured" data-name="Icon awesome-user-injured" d="M11.715.506a5.366,5.366,0,0,0-7.26,2.873H7.885L11.715.506Zm2.751,2.873a5.394,5.394,0,0,0-1.541-2.092L10.136,3.379ZM9.461,10.813a5.406,5.406,0,0,0,5.406-5.406A5.4,5.4,0,0,0,14.8,4.73H4.123a5.323,5.323,0,0,0-.068.676A5.406,5.406,0,0,0,9.461,10.813ZM3.379,12.658v8.967H8.8L4.638,12.269a5.61,5.61,0,0,0-1.259.389ZM0,19.6a2.027,2.027,0,0,0,2.027,2.027v-8.1A5.638,5.638,0,0,0,0,17.841ZM10.813,17.57H8.473l1.8,4.055h.537a2.027,2.027,0,0,0,0-4.055Zm2.433-5.406H12.54a7.35,7.35,0,0,1-6.157,0H6.071l1.8,4.055h2.939A3.383,3.383,0,0,1,14.191,19.6a3.347,3.347,0,0,1-.693,2.027h3.4A2.027,2.027,0,0,0,18.922,19.6V17.841A5.676,5.676,0,0,0,13.245,12.164Z" fill="#4f4f4f"/>
</svg>
