<svg xmlns="http://www.w3.org/2000/svg" width="20.461" height="20.466" viewBox="0 0 20.461 20.466">
  <path id="Icon_ionic-ios-settings" data-name="Icon ionic-ios-settings" d="M23.272,14.73a2.633,2.633,0,0,1,1.689-2.456A10.436,10.436,0,0,0,23.7,9.232a2.668,2.668,0,0,1-1.071.229,2.627,2.627,0,0,1-2.4-3.7A10.4,10.4,0,0,0,17.187,4.5a2.631,2.631,0,0,1-4.913,0A10.436,10.436,0,0,0,9.232,5.763a2.627,2.627,0,0,1-2.4,3.7,2.581,2.581,0,0,1-1.071-.229A10.667,10.667,0,0,0,4.5,12.279a2.632,2.632,0,0,1,.005,4.913,10.436,10.436,0,0,0,1.263,3.042A2.628,2.628,0,0,1,9.237,23.7a10.5,10.5,0,0,0,3.042,1.263,2.626,2.626,0,0,1,4.9,0A10.436,10.436,0,0,0,20.224,23.7a2.631,2.631,0,0,1,3.469-3.469,10.5,10.5,0,0,0,1.263-3.042A2.645,2.645,0,0,1,23.272,14.73Zm-8.493,4.257a4.263,4.263,0,1,1,4.263-4.263A4.262,4.262,0,0,1,14.778,18.988Z" transform="translate(-4.5 -4.5)" fill="#4f4f4f"/>
</svg>
