<svg xmlns="http://www.w3.org/2000/svg" width="16.755" height="16.755" viewBox="0 0 16.755 16.755">
  <g id="Group_33" data-name="Group 33" transform="translate(-1607.044 -488.714)">
    <path id="Icon_ionic-md-image" data-name="Icon ionic-md-image" d="M21.255,19.394V6.362A1.867,1.867,0,0,0,19.394,4.5H6.362A1.867,1.867,0,0,0,4.5,6.362V19.394a1.867,1.867,0,0,0,1.862,1.862H19.394A1.867,1.867,0,0,0,21.255,19.394ZM9.62,15.274l2.327,2.793L15.2,16.878l4.189,2.585H6.362Z" transform="translate(1602.544 484.214)" fill="#4f4f4f"/>
    <path id="Icon_metro-file-upload" data-name="Icon metro-file-upload" d="M10.713,11h2.573V8.428H15l-3-3-3,3h1.715Z" transform="translate(1603.35 486.735)" fill="#fff"/>
  </g>
</svg>
