<svg xmlns="http://www.w3.org/2000/svg" width="18" height="18" viewBox="0 0 18 18">
  <g id="Group_34" data-name="Group 34" transform="translate(-1607 -487)">
    <rect id="Rectangle_29" data-name="Rectangle 29" width="18" height="18" rx="3" transform="translate(1607 487)" fill="#4f4f4f"/>
    <path id="Icon_awesome-signature" data-name="Icon awesome-signature" d="M10.426,6.64A9.89,9.89,0,0,0,7.7,7.836a3.462,3.462,0,0,1-1.273.408c-.378,0-.435-.271-.356-.868.018-.134.2-1.325-.714-1.273-.42.025-1.076.415-2.835,2.108l.694-1.735a1.445,1.445,0,0,0-2.17-1.72l-.918.617a.269.269,0,0,0-.082.37L.331,6.2a.266.266,0,0,0,.37.082l.97-.651a.373.373,0,0,1,.547.453L.575,10.188a.534.534,0,0,0,.5.734.529.529,0,0,0,.378-.157c.706-.706,2.588-2.521,3.533-3.275a1.736,1.736,0,0,0,.345,1.4,1.412,1.412,0,0,0,1.1.423,4.23,4.23,0,0,0,1.711-.5,9.943,9.943,0,0,1,2.315-1.1.269.269,0,0,0,.254-.264V6.911a.265.265,0,0,0-.278-.271Z" transform="translate(1610.296 490.578)" fill="#fff"/>
  </g>
</svg>
