<svg xmlns="http://www.w3.org/2000/svg" width="23.864" height="16.705" viewBox="0 0 23.864 16.705">
  <path id="Icon_awesome-users" data-name="Icon awesome-users" d="M3.58,9.409A2.386,2.386,0,1,0,1.193,7.023,2.389,2.389,0,0,0,3.58,9.409Zm16.7,0A2.386,2.386,0,1,0,17.9,7.023,2.389,2.389,0,0,0,20.284,9.409ZM21.477,10.6H19.091a2.379,2.379,0,0,0-1.682.694,5.454,5.454,0,0,1,2.8,4.079h2.461a1.192,1.192,0,0,0,1.193-1.193V12.989A2.389,2.389,0,0,0,21.477,10.6Zm-9.546,0A4.176,4.176,0,1,0,7.756,6.426,4.174,4.174,0,0,0,11.932,10.6ZM14.8,11.8h-.309a5.766,5.766,0,0,1-5.108,0H9.068a4.3,4.3,0,0,0-4.3,4.3v1.074a1.79,1.79,0,0,0,1.79,1.79H17.3a1.79,1.79,0,0,0,1.79-1.79V16.091A4.3,4.3,0,0,0,14.8,11.8Zm-8.341-.5A2.379,2.379,0,0,0,4.773,10.6H2.386A2.389,2.389,0,0,0,0,12.989v1.193a1.192,1.192,0,0,0,1.193,1.193H3.65A5.468,5.468,0,0,1,6.454,11.3Z" transform="translate(0 -2.25)" fill="#fff"/>
</svg>
